# xmcd
#
# Track frame offsets: 
#        150
#        13499
#        29154
#        41765
#        51998
#        64301
#        80141
#        95002
#        111052
#        120649
#        130123
#        141837
#        152642
#        163781
#
# Disc length: 2578 seconds
#
# Revision: 0
# Processed by: cddbd v1.5.2PL0 Copyright (c) Steve Scherf et al.
# Submitted via: ExactAudioCopy v0.99pb5
#
DISCID=d00a100e
DTITLE=4 Wheel Drive - Another Town
DYEAR=2007
DGENRE=Bluegrass
TTITLE0=Another Town
TTITLE1=Blue Ridge Mountain Girl
TTITLE2=Hillybilly Twist
TTITLE3=A Broken Heart
TTITLE4=Thirsty In The Rain
TTITLE5=Lonesome Moonlight Waltz
TTITLE6=Cotton Eyed Joe
TTITLE7=If I Needed You
TTITLE8=Harvest Time
TTITLE9=Cattle In The Caine
TTITLE10=Don´t Youz Believe
TTITLE11=Walking In Jerusalem
TTITLE12=I´ll Love Nobody But You
TTITLE13=Dream
EXTD=
EXTT0=
EXTT1=
EXTT2=
EXTT3=
EXTT4=
EXTT5=
EXTT6=
EXTT7=
EXTT8=
EXTT9=
EXTT10=
EXTT11=
EXTT12=
EXTT13=
PLAYORDER=
